<?xml version="1.0" ?><svg id="Layer_1" style="enable-background:new 0 0 32 32;" version="1.1" viewBox="0 0 32 32" xml:space="preserve" xmlns="http://www.w3.org/2000/svg" xmlns:xlink="http://www.w3.org/1999/xlink"><style type="text/css">
	.st0{fill:#222A30;}
	.st1{fill:#868687;}
	.st2{fill-rule:evenodd;clip-rule:evenodd;fill:#222A30;stroke:#222A30;stroke-width:0.776;}
	.st3{fill-rule:evenodd;clip-rule:evenodd;fill:#222A30;fill-opacity:0;stroke:#222A30;stroke-width:0.776;}
	.st4{fill:none;stroke:#222A30;stroke-width:1.5556;stroke-opacity:0.5;}
	.st5{fill:none;stroke:#222A30;stroke-width:1.5556;}
	.st6{fill:#070707;}
</style><path class="st0" d="M18.7,7.3c0-1.5-1.2-2.7-2.7-2.7h-1.3V3.3c0-0.7-0.6-1.3-1.3-1.3H8C7.3,2,6.7,2.6,6.7,3.3  v1.3H5.3c-1.5,0-2.7,1.2-2.7,2.7v20c0,1.5,1.2,2.7,2.7,2.7H16c1.5,0,2.7-1.2,2.7-2.7h10.7v-20H18.7z M15.3,24.7H14  c-0.4,0-0.7-0.3-0.7-0.7v-1.3c0-0.4,0.3-0.7,0.7-0.7h1.3c0.4,0,0.7,0.3,0.7,0.7V24C16,24.4,15.7,24.7,15.3,24.7z M15.3,12.7H14  c-0.4,0-0.7-0.3-0.7-0.7v-1.3c0-0.4,0.3-0.7,0.7-0.7h1.3c0.4,0,0.7,0.3,0.7,0.7V12C16,12.4,15.7,12.7,15.3,12.7z M20.7,24.7h-1.3  c-0.4,0-0.7-0.3-0.7-0.7v-1.3c0-0.4,0.3-0.7,0.7-0.7h1.3c0.4,0,0.7,0.3,0.7,0.7V24C21.3,24.4,21,24.7,20.7,24.7z M20.7,12.7h-1.3  c-0.4,0-0.7-0.3-0.7-0.7v-1.3c0-0.4,0.3-0.7,0.7-0.7h1.3c0.4,0,0.7,0.3,0.7,0.7V12C21.3,12.4,21,12.7,20.7,12.7z M26,24.7h-1.3  c-0.4,0-0.7-0.3-0.7-0.7v-1.3c0-0.4,0.3-0.7,0.7-0.7H26c0.4,0,0.7,0.3,0.7,0.7V24C26.7,24.4,26.4,24.7,26,24.7z M26,12.7h-1.3  c-0.4,0-0.7-0.3-0.7-0.7v-1.3c0-0.4,0.3-0.7,0.7-0.7H26c0.4,0,0.7,0.3,0.7,0.7V12C26.7,12.4,26.4,12.7,26,12.7z" id="camera_x5F_roll"/></svg>